<?xml version="1.0" encoding="UTF-8" standalone="no"?>
<!DOCTYPE svg PUBLIC "-//W3C//DTD SVG 1.1//EN" "http://www.w3.org/Graphics/SVG/1.1/DTD/svg11.dtd">
<svg width="100%" height="100%" viewBox="0 0 650 697" version="1.1" xmlns="http://www.w3.org/2000/svg" xmlns:xlink="http://www.w3.org/1999/xlink" xml:space="preserve" xmlns:serif="http://www.serif.com/" style="fill-rule:evenodd;clip-rule:evenodd;stroke-linejoin:round;stroke-miterlimit:2;">
    <g transform="matrix(1,0,0,1,-66.9839,-48.4765)">
        <g transform="matrix(-1,0,0,1,272.666,148.669)">
            <rect x="124.333" y="247.999" width="24" height="151.333" style="fill:black;"/>
        </g>
        <g transform="matrix(-1,0,0,1,392,148.669)">
            <rect x="183" y="247.999" width="26" height="151.333" style="fill:black;"/>
        </g>
        <g transform="matrix(-1,0,0,1,511.333,148.669)">
            <rect x="243" y="247.999" width="25.333" height="151.333" style="fill:black;"/>
        </g>
        <g transform="matrix(-1,0,0,1,632.458,148.669)">
            <rect x="304.125" y="247.999" width="24.208" height="151.333" style="fill:black;"/>
        </g>
        <g transform="matrix(-1,0,0,1,748.666,148.669)">
            <rect x="362.333" y="247.999" width="24" height="151.333" style="fill:black;"/>
        </g>
        <g transform="matrix(-1,0,0,1,868.666,148.669)">
            <rect x="422.333" y="247.999" width="24" height="151.333" style="fill:black;"/>
        </g>
        <g transform="matrix(-1,0,0,1,988.666,148.669)">
            <rect x="482.333" y="247.999" width="24" height="151.333" style="fill:black;"/>
        </g>
        <g transform="matrix(-1,0,0,1,1106,148.669)">
            <rect x="541.001" y="247.999" width="24" height="151.333" style="fill:black;"/>
        </g>
        <g transform="matrix(-1,0,0,1,1225.34,148.669)">
            <rect x="600.334" y="247.999" width="24.667" height="151.333" style="fill:black;"/>
        </g>
        <g transform="matrix(-1,0,0,1,1344.67,148.669)">
            <rect x="660.334" y="247.999" width="24" height="151.333" style="fill:black;"/>
        </g>
        <g transform="matrix(-1,0,0,1,804.002,363.334)">
            <rect x="100.334" y="201.333" width="603.334" height="30" style="fill:black;"/>
        </g>
        <g transform="matrix(-1,0,0,1,808.002,-64.667)">
            <rect x="118.001" y="418.667" width="572" height="23.333" style="fill:black;"/>
        </g>
        <g transform="matrix(-1,0,0,1,804.002,-148.001)">
            <rect x="100.334" y="460.667" width="603.334" height="22.667" style="fill:black;"/>
        </g>
        <g transform="matrix(-1,0,0,1,801.335,-232.001)">
            <rect x="170.334" y="502.667" width="460.667" height="22.667" style="fill:black;"/>
        </g>
        <g transform="matrix(1,0,0,1,179.001,145.333)">
            <path d="M0,100L446,100C446,100 374.704,0 216.019,0.667C57.333,1.333 0,100 0,100" style="fill:black;fill-rule:nonzero;"/>
        </g>
        <g>
            <g transform="matrix(94,0,0,94,62.0269,125.999)">
                <path d="M0.647,-0.713L0.647,-0.579C0.582,-0.634 0.514,-0.661 0.443,-0.661C0.366,-0.661 0.301,-0.633 0.248,-0.578C0.194,-0.522 0.167,-0.455 0.167,-0.375C0.167,-0.295 0.194,-0.229 0.248,-0.174C0.301,-0.12 0.366,-0.093 0.444,-0.093C0.484,-0.093 0.518,-0.099 0.546,-0.112C0.562,-0.119 0.578,-0.128 0.594,-0.139C0.611,-0.15 0.629,-0.163 0.647,-0.179L0.647,-0.042C0.582,-0.005 0.514,0.014 0.442,0.014C0.335,0.014 0.243,-0.024 0.167,-0.099C0.091,-0.175 0.053,-0.266 0.053,-0.374C0.053,-0.47 0.084,-0.555 0.148,-0.63C0.226,-0.722 0.327,-0.769 0.451,-0.769C0.519,-0.769 0.584,-0.75 0.647,-0.713Z" style="fill:black;fill-rule:nonzero;"/>
            </g>
            <g transform="matrix(94,0,0,94,124.036,125.999)">
                <path d="M0.219,-0.088L0.005,-0.476L0.133,-0.476L0.278,-0.202L0.414,-0.476L0.538,-0.476L0.159,0.259L0.034,0.259L0.219,-0.088Z" style="fill:black;fill-rule:nonzero;"/>
            </g>
            <g transform="matrix(94,0,0,94,171.266,125.999)">
                <path d="M0.179,-0.825L0.179,-0.42C0.223,-0.466 0.273,-0.489 0.329,-0.489C0.393,-0.489 0.446,-0.465 0.489,-0.417C0.531,-0.369 0.553,-0.31 0.553,-0.239C0.553,-0.166 0.531,-0.105 0.488,-0.058C0.446,-0.01 0.392,0.014 0.327,0.014C0.272,0.014 0.222,-0.007 0.179,-0.05L0.179,-0L0.069,-0L0.069,-0.825L0.179,-0.825ZM0.44,-0.234C0.44,-0.28 0.428,-0.317 0.403,-0.346C0.378,-0.375 0.347,-0.39 0.309,-0.39C0.269,-0.39 0.236,-0.375 0.21,-0.347C0.185,-0.319 0.173,-0.283 0.173,-0.238C0.173,-0.192 0.185,-0.155 0.21,-0.127C0.235,-0.099 0.267,-0.084 0.308,-0.084C0.346,-0.084 0.377,-0.099 0.402,-0.127C0.428,-0.156 0.44,-0.191 0.44,-0.234Z" style="fill:black;fill-rule:nonzero;"/>
            </g>
            <g transform="matrix(94,0,0,94,223.774,125.999)">
                <path d="M0.502,-0.212L0.162,-0.212C0.165,-0.173 0.177,-0.142 0.2,-0.119C0.222,-0.096 0.251,-0.084 0.286,-0.084C0.313,-0.084 0.336,-0.091 0.354,-0.104C0.372,-0.117 0.392,-0.141 0.414,-0.176L0.507,-0.125C0.493,-0.1 0.477,-0.079 0.461,-0.062C0.445,-0.044 0.428,-0.03 0.41,-0.019C0.392,-0.008 0.372,0.001 0.351,0.006C0.33,0.011 0.307,0.014 0.282,0.014C0.211,0.014 0.154,-0.009 0.111,-0.055C0.068,-0.101 0.047,-0.161 0.047,-0.237C0.047,-0.313 0.068,-0.373 0.109,-0.42C0.151,-0.466 0.207,-0.489 0.276,-0.489C0.346,-0.489 0.402,-0.466 0.442,-0.422C0.483,-0.378 0.503,-0.316 0.503,-0.238L0.502,-0.212ZM0.39,-0.302C0.374,-0.36 0.337,-0.39 0.279,-0.39C0.265,-0.39 0.253,-0.388 0.241,-0.384C0.229,-0.379 0.219,-0.374 0.209,-0.366C0.2,-0.358 0.191,-0.349 0.185,-0.338C0.178,-0.328 0.173,-0.315 0.169,-0.302L0.39,-0.302Z" style="fill:black;fill-rule:nonzero;"/>
            </g>
            <g transform="matrix(94,0,0,94,271.922,125.999)">
                <path d="M0.069,-0.476L0.179,-0.476L0.179,-0.433C0.199,-0.454 0.217,-0.469 0.233,-0.477C0.249,-0.485 0.268,-0.489 0.29,-0.489C0.319,-0.489 0.349,-0.479 0.38,-0.46L0.33,-0.36C0.309,-0.375 0.289,-0.382 0.269,-0.382C0.209,-0.382 0.179,-0.337 0.179,-0.247L0.179,-0L0.069,-0L0.069,-0.476Z" style="fill:black;fill-rule:nonzero;"/>
            </g>
            <g transform="matrix(94,0,0,94,303.225,125.999)">
                <path d="M0.346,-0.395L0.255,-0.346C0.241,-0.375 0.223,-0.39 0.202,-0.39C0.192,-0.39 0.183,-0.387 0.176,-0.38C0.169,-0.373 0.165,-0.365 0.165,-0.354C0.165,-0.336 0.186,-0.318 0.229,-0.3C0.287,-0.275 0.326,-0.252 0.346,-0.231C0.366,-0.21 0.376,-0.181 0.376,-0.146C0.376,-0.1 0.36,-0.061 0.326,-0.03C0.293,-0.001 0.253,0.014 0.207,0.014C0.127,0.014 0.07,-0.025 0.037,-0.103L0.131,-0.146C0.144,-0.124 0.154,-0.109 0.161,-0.103C0.174,-0.091 0.19,-0.084 0.208,-0.084C0.246,-0.084 0.264,-0.101 0.264,-0.135C0.264,-0.155 0.25,-0.173 0.221,-0.19C0.21,-0.195 0.199,-0.201 0.188,-0.206C0.177,-0.211 0.166,-0.217 0.154,-0.222C0.122,-0.238 0.1,-0.253 0.087,-0.269C0.07,-0.289 0.062,-0.314 0.062,-0.346C0.062,-0.387 0.076,-0.421 0.104,-0.448C0.133,-0.475 0.169,-0.489 0.21,-0.489C0.271,-0.489 0.316,-0.457 0.346,-0.395Z" style="fill:black;fill-rule:nonzero;"/>
            </g>
            <g transform="matrix(94,0,0,94,337.512,125.999)">
                <path d="M0.502,-0.212L0.162,-0.212C0.165,-0.173 0.177,-0.142 0.2,-0.119C0.222,-0.096 0.251,-0.084 0.286,-0.084C0.313,-0.084 0.336,-0.091 0.354,-0.104C0.372,-0.117 0.392,-0.141 0.414,-0.176L0.507,-0.125C0.493,-0.1 0.477,-0.079 0.461,-0.062C0.445,-0.044 0.428,-0.03 0.41,-0.019C0.392,-0.008 0.372,0.001 0.351,0.006C0.33,0.011 0.307,0.014 0.282,0.014C0.211,0.014 0.154,-0.009 0.111,-0.055C0.068,-0.101 0.047,-0.161 0.047,-0.237C0.047,-0.313 0.068,-0.373 0.109,-0.42C0.151,-0.466 0.207,-0.489 0.276,-0.489C0.346,-0.489 0.402,-0.466 0.442,-0.422C0.483,-0.378 0.503,-0.316 0.503,-0.238L0.502,-0.212ZM0.39,-0.302C0.374,-0.36 0.337,-0.39 0.279,-0.39C0.265,-0.39 0.253,-0.388 0.241,-0.384C0.229,-0.379 0.219,-0.374 0.209,-0.366C0.2,-0.358 0.191,-0.349 0.185,-0.338C0.178,-0.328 0.173,-0.315 0.169,-0.302L0.39,-0.302Z" style="fill:black;fill-rule:nonzero;"/>
            </g>
            <g transform="matrix(94,0,0,94,385.66,125.999)">
                <path d="M0.439,-0.455L0.439,-0.309C0.414,-0.34 0.392,-0.361 0.372,-0.372C0.353,-0.384 0.33,-0.39 0.303,-0.39C0.262,-0.39 0.228,-0.375 0.2,-0.346C0.173,-0.317 0.159,-0.281 0.159,-0.237C0.159,-0.193 0.172,-0.156 0.199,-0.127C0.225,-0.099 0.259,-0.084 0.301,-0.084C0.327,-0.084 0.35,-0.09 0.371,-0.102C0.39,-0.113 0.413,-0.134 0.439,-0.166L0.439,-0.021C0.395,0.002 0.35,0.014 0.306,0.014C0.232,0.014 0.171,-0.01 0.121,-0.058C0.072,-0.105 0.047,-0.165 0.047,-0.236C0.047,-0.307 0.072,-0.367 0.122,-0.416C0.172,-0.464 0.234,-0.489 0.307,-0.489C0.354,-0.489 0.398,-0.478 0.439,-0.455Z" style="fill:black;fill-rule:nonzero;"/>
            </g>
            <g transform="matrix(94,0,0,94,426.602,125.999)">
                <path d="M0.179,-0.476L0.179,-0.203C0.179,-0.124 0.21,-0.084 0.272,-0.084C0.335,-0.084 0.366,-0.124 0.366,-0.203L0.366,-0.476L0.476,-0.476L0.476,-0.2C0.476,-0.162 0.471,-0.129 0.461,-0.102C0.452,-0.077 0.437,-0.055 0.414,-0.035C0.377,-0.002 0.33,0.014 0.272,0.014C0.215,0.014 0.168,-0.002 0.131,-0.035C0.109,-0.055 0.092,-0.077 0.083,-0.102C0.074,-0.124 0.069,-0.157 0.069,-0.2L0.069,-0.476L0.179,-0.476Z" style="fill:black;fill-rule:nonzero;"/>
            </g>
            <g transform="matrix(94,0,0,94,473.969,125.999)">
                <path d="M0.069,-0.476L0.179,-0.476L0.179,-0.433C0.199,-0.454 0.217,-0.469 0.233,-0.477C0.249,-0.485 0.268,-0.489 0.29,-0.489C0.319,-0.489 0.349,-0.479 0.38,-0.46L0.33,-0.36C0.309,-0.375 0.289,-0.382 0.269,-0.382C0.209,-0.382 0.179,-0.337 0.179,-0.247L0.179,-0L0.069,-0L0.069,-0.476Z" style="fill:black;fill-rule:nonzero;"/>
            </g>
            <g transform="matrix(94,0,0,94,506.695,125.999)">
                <path d="M0.179,-0.476L0.179,-0L0.069,-0L0.069,-0.476L0.179,-0.476ZM0.053,-0.673C0.053,-0.693 0.06,-0.709 0.074,-0.723C0.088,-0.737 0.104,-0.744 0.124,-0.744C0.144,-0.744 0.161,-0.737 0.175,-0.723C0.189,-0.709 0.196,-0.693 0.196,-0.673C0.196,-0.653 0.189,-0.636 0.175,-0.622C0.161,-0.608 0.144,-0.601 0.125,-0.601C0.105,-0.601 0.088,-0.608 0.074,-0.622C0.06,-0.636 0.053,-0.653 0.053,-0.673Z" style="fill:black;fill-rule:nonzero;"/>
            </g>
            <g transform="matrix(94,0,0,94,526.249,125.999)">
                <path d="M0.183,-0.373L0.183,-0L0.073,-0L0.073,-0.373L0.026,-0.373L0.026,-0.476L0.073,-0.476L0.073,-0.65L0.183,-0.65L0.183,-0.476L0.268,-0.476L0.268,-0.373L0.183,-0.373Z" style="fill:black;fill-rule:nonzero;"/>
            </g>
            <g transform="matrix(94,0,0,94,548.097,125.999)">
                <path d="M0.219,-0.088L0.005,-0.476L0.133,-0.476L0.278,-0.202L0.414,-0.476L0.538,-0.476L0.159,0.259L0.034,0.259L0.219,-0.088Z" style="fill:black;fill-rule:nonzero;"/>
            </g>
            <g transform="matrix(94,0,0,94,622.737,125.999)">
                <path d="M0.42,-0.476L0.53,-0.476L0.53,-0L0.42,-0L0.42,-0.05C0.375,-0.007 0.326,0.014 0.274,0.014C0.208,0.014 0.154,-0.01 0.111,-0.058C0.068,-0.106 0.047,-0.167 0.047,-0.239C0.047,-0.311 0.068,-0.37 0.111,-0.417C0.153,-0.465 0.207,-0.489 0.271,-0.489C0.326,-0.489 0.376,-0.466 0.42,-0.42L0.42,-0.476ZM0.159,-0.239C0.159,-0.194 0.171,-0.157 0.196,-0.128C0.221,-0.099 0.252,-0.084 0.291,-0.084C0.331,-0.084 0.364,-0.098 0.389,-0.126C0.414,-0.155 0.427,-0.192 0.427,-0.237C0.427,-0.281 0.414,-0.318 0.389,-0.347C0.364,-0.375 0.332,-0.39 0.292,-0.39C0.254,-0.39 0.222,-0.375 0.197,-0.347C0.172,-0.318 0.159,-0.282 0.159,-0.239Z" style="fill:black;fill-rule:nonzero;"/>
            </g>
            <g transform="matrix(94,0,0,94,675.245,125.999)">
                <path d="M0.183,-0.373L0.183,-0L0.073,-0L0.073,-0.373L0.026,-0.373L0.026,-0.476L0.073,-0.476L0.073,-0.65L0.183,-0.65L0.183,-0.476L0.268,-0.476L0.268,-0.373L0.183,-0.373Z" style="fill:black;fill-rule:nonzero;"/>
            </g>
        </g>
        <g transform="matrix(155,0,0,155,355.093,742.999)">
            <path d="M0.517,-0.642L0.424,-0.587C0.407,-0.617 0.391,-0.636 0.375,-0.646C0.359,-0.656 0.338,-0.661 0.312,-0.661C0.28,-0.661 0.254,-0.652 0.233,-0.634C0.213,-0.617 0.202,-0.595 0.202,-0.568C0.202,-0.531 0.229,-0.501 0.284,-0.479L0.359,-0.448C0.421,-0.424 0.465,-0.393 0.494,-0.358C0.522,-0.322 0.536,-0.278 0.536,-0.227C0.536,-0.157 0.513,-0.1 0.467,-0.055C0.42,-0.009 0.362,0.014 0.293,0.014C0.228,0.014 0.174,-0.006 0.131,-0.044C0.089,-0.083 0.063,-0.138 0.053,-0.208L0.168,-0.233C0.173,-0.189 0.182,-0.159 0.195,-0.142C0.219,-0.109 0.253,-0.093 0.298,-0.093C0.333,-0.093 0.363,-0.105 0.386,-0.128C0.41,-0.152 0.421,-0.182 0.421,-0.219C0.421,-0.233 0.419,-0.247 0.415,-0.259C0.411,-0.271 0.405,-0.282 0.396,-0.293C0.388,-0.303 0.376,-0.313 0.363,-0.322C0.349,-0.33 0.333,-0.339 0.314,-0.347L0.241,-0.377C0.138,-0.421 0.086,-0.485 0.086,-0.569C0.086,-0.625 0.108,-0.673 0.151,-0.711C0.195,-0.749 0.249,-0.769 0.313,-0.769C0.4,-0.769 0.468,-0.726 0.517,-0.642Z" style="fill:black;fill-rule:nonzero;"/>
        </g>
        <g transform="matrix(155,0,0,155,438.573,742.999)">
            <rect x="0.069" y="-0.825" width="0.11" height="0.825" style="fill:black;fill-rule:nonzero;"/>
        </g>
        <g transform="matrix(155,0,0,155,470.285,742.999)">
            <path d="M0.047,-0.241C0.047,-0.31 0.071,-0.368 0.121,-0.417C0.17,-0.465 0.23,-0.489 0.3,-0.489C0.371,-0.489 0.431,-0.465 0.481,-0.416C0.53,-0.368 0.554,-0.308 0.554,-0.237C0.554,-0.166 0.53,-0.106 0.48,-0.058C0.431,-0.01 0.37,0.014 0.298,0.014C0.227,0.014 0.167,-0.011 0.119,-0.06C0.071,-0.108 0.047,-0.168 0.047,-0.241ZM0.159,-0.239C0.159,-0.192 0.172,-0.154 0.197,-0.126C0.223,-0.098 0.258,-0.084 0.3,-0.084C0.343,-0.084 0.378,-0.098 0.403,-0.126C0.429,-0.154 0.442,-0.191 0.442,-0.237C0.442,-0.283 0.429,-0.32 0.403,-0.348C0.377,-0.376 0.343,-0.39 0.3,-0.39C0.258,-0.39 0.224,-0.376 0.198,-0.348C0.172,-0.32 0.159,-0.284 0.159,-0.239Z" style="fill:black;fill-rule:nonzero;"/>
        </g>
        <g transform="matrix(155,0,0,155,556.565,742.999)">
            <path d="M0.42,-0.476L0.53,-0.476L0.53,-0L0.42,-0L0.42,-0.05C0.375,-0.007 0.326,0.014 0.274,0.014C0.208,0.014 0.154,-0.01 0.111,-0.058C0.068,-0.106 0.047,-0.167 0.047,-0.239C0.047,-0.311 0.068,-0.37 0.111,-0.417C0.153,-0.465 0.207,-0.489 0.271,-0.489C0.326,-0.489 0.376,-0.466 0.42,-0.42L0.42,-0.476ZM0.159,-0.239C0.159,-0.194 0.171,-0.157 0.196,-0.128C0.221,-0.099 0.252,-0.084 0.291,-0.084C0.331,-0.084 0.364,-0.098 0.389,-0.126C0.414,-0.155 0.427,-0.192 0.427,-0.237C0.427,-0.281 0.414,-0.318 0.389,-0.347C0.364,-0.375 0.332,-0.39 0.292,-0.39C0.254,-0.39 0.222,-0.375 0.197,-0.347C0.172,-0.318 0.159,-0.282 0.159,-0.239Z" style="fill:black;fill-rule:nonzero;"/>
        </g>
        <g transform="matrix(155,0,0,155,642.618,742.999)">
            <path d="M0.069,-0.476L0.18,-0.476L0.18,-0.432C0.218,-0.47 0.261,-0.489 0.31,-0.489C0.365,-0.489 0.408,-0.471 0.439,-0.437C0.466,-0.407 0.479,-0.359 0.479,-0.292L0.479,-0L0.369,-0L0.369,-0.266C0.369,-0.313 0.362,-0.345 0.349,-0.363C0.336,-0.381 0.313,-0.39 0.28,-0.39C0.243,-0.39 0.217,-0.378 0.202,-0.354C0.187,-0.33 0.18,-0.289 0.18,-0.229L0.18,-0L0.069,-0L0.069,-0.476Z" style="fill:black;fill-rule:nonzero;"/>
        </g>
        <g transform="matrix(1,0,0,1,0,574.402)">
            <rect x="221.632" y="53.001" width="34.549" height="115.596" style="fill:rgb(138,140,140);"/>
        </g>
        <g transform="matrix(1,0,0,1,259.286,742.999)">
            <path d="M0,-115.596L0,-87.06L14.256,-87.06L14.256,0L50.535,0L50.535,-87.06L89.679,-87.06L89.679,-115.596L0,-115.596Z" style="fill:rgb(85,87,89);fill-rule:nonzero;"/>
        </g>
        <g transform="matrix(1,0,0,1,218.526,685.202)">
            <path d="M0,-0.002L-0.462,-2.483L-10.758,-57.799L-45.352,-57.799L-68.799,-1.649L-92.246,-57.799L-127.006,-57.799L-148.5,57.797L-114.019,57.797L-102.95,-1.421L-76.983,57.797L-60.613,57.797L-34.778,-1.421L-23.783,57.797L0,57.797L0,-0.002Z" style="fill:rgb(165,30,53);fill-rule:nonzero;"/>
        </g>
    </g>
</svg>
