<?xml version="1.0" encoding="UTF-8" standalone="no"?>
<!DOCTYPE svg PUBLIC "-//W3C//DTD SVG 1.1//EN" "http://www.w3.org/Graphics/SVG/1.1/DTD/svg11.dtd">
<svg width="100%" height="100%" viewBox="0 0 550 230" version="1.1" xmlns="http://www.w3.org/2000/svg" xmlns:xlink="http://www.w3.org/1999/xlink" xml:space="preserve" xmlns:serif="http://www.serif.com/" style="fill-rule:evenodd;clip-rule:evenodd;stroke-linejoin:round;stroke-miterlimit:2;">
    <g transform="matrix(2.07125,0,0,2.07125,-405.211,-72.3724)">
        <g transform="matrix(1,0,0,1,114.855,24.8752)">
            <path d="M88.799,33.44L96.744,33.44L96.744,36.604C99.51,33.862 102.627,32.491 106.096,32.491C110.08,32.491 113.186,33.745 115.412,36.253C117.334,38.385 118.295,41.866 118.295,46.694L118.295,67.682L110.35,67.682L110.35,48.557C110.35,45.182 109.881,42.85 108.944,41.561C108.03,40.249 106.366,39.592 103.952,39.592C101.327,39.592 99.463,40.46 98.362,42.194C97.284,43.905 96.744,46.893 96.744,51.159L96.744,67.682L88.799,67.682L88.799,33.44Z" style="fill-rule:nonzero;"/>
            <path d="M159.463,52.424L134.924,52.424C135.135,55.237 136.049,57.475 137.666,59.139C139.284,60.78 141.358,61.6 143.889,61.6C145.858,61.6 147.487,61.131 148.776,60.194C150.041,59.256 151.483,57.522 153.1,54.991L159.78,58.717C158.748,60.475 157.659,61.981 156.51,63.235C155.362,64.489 154.131,65.52 152.819,66.329C151.506,67.137 150.088,67.729 148.565,68.104C147.041,68.479 145.389,68.667 143.608,68.667C138.498,68.667 134.397,67.026 131.303,63.745C128.209,60.44 126.662,56.057 126.662,50.596C126.662,45.182 128.162,40.799 131.162,37.448C134.186,34.143 138.194,32.491 143.186,32.491C148.225,32.491 152.209,34.096 155.139,37.307C158.045,40.495 159.498,44.913 159.498,50.561L159.463,52.424ZM151.342,45.956C150.241,41.737 147.58,39.628 143.362,39.628C142.401,39.628 141.498,39.774 140.655,40.067C139.811,40.36 139.043,40.782 138.352,41.333C137.66,41.883 137.069,42.546 136.577,43.319C136.084,44.092 135.709,44.971 135.452,45.956L151.342,45.956Z" style="fill-rule:nonzero;"/>
            <path d="M166.494,50.315C166.494,45.37 168.264,41.163 171.803,37.694C175.342,34.225 179.655,32.491 184.741,32.491C189.85,32.491 194.186,34.237 197.748,37.729C201.264,41.221 203.022,45.51 203.022,50.596C203.022,55.729 201.252,60.03 197.713,63.499C194.151,66.944 189.78,68.667 184.6,68.667C179.467,68.667 175.166,66.909 171.698,63.393C168.229,59.924 166.494,55.565 166.494,50.315ZM174.58,50.456C174.58,53.878 175.494,56.585 177.323,58.577C179.198,60.592 181.67,61.6 184.741,61.6C187.834,61.6 190.307,60.604 192.159,58.612C194.01,56.62 194.936,53.96 194.936,50.631C194.936,47.303 194.01,44.643 192.159,42.651C190.284,40.635 187.811,39.628 184.741,39.628C181.717,39.628 179.268,40.635 177.393,42.651C175.518,44.667 174.58,47.268 174.58,50.456Z" style="fill-rule:nonzero;"/>
            <path d="M254.561,33.44L262.506,33.44L262.506,67.682L254.561,67.682L254.561,64.096C251.303,67.143 247.799,68.667 244.049,68.667C239.315,68.667 235.401,66.956 232.307,63.534C229.237,60.042 227.702,55.682 227.702,50.456C227.702,45.323 229.237,41.046 232.307,37.624C235.377,34.202 239.221,32.491 243.838,32.491C247.823,32.491 251.397,34.131 254.561,37.413L254.561,33.44ZM235.787,50.456C235.787,53.737 236.666,56.409 238.424,58.471C240.229,60.557 242.502,61.6 245.244,61.6C248.174,61.6 250.541,60.592 252.346,58.577C254.151,56.491 255.053,53.842 255.053,50.631C255.053,47.421 254.151,44.772 252.346,42.686C250.541,40.647 248.198,39.628 245.315,39.628C242.596,39.628 240.323,40.659 238.494,42.721C236.69,44.807 235.787,47.385 235.787,50.456Z" style="fill-rule:nonzero;"/>
            <path d="M299.139,34.917L299.139,45.428C297.334,43.225 295.717,41.713 294.287,40.893C292.881,40.049 291.229,39.628 289.33,39.628C286.354,39.628 283.881,40.671 281.912,42.756C279.944,44.842 278.959,47.456 278.959,50.596C278.959,53.807 279.909,56.444 281.807,58.506C283.729,60.569 286.178,61.6 289.155,61.6C291.053,61.6 292.729,61.19 294.182,60.37C295.588,59.573 297.241,58.026 299.139,55.729L299.139,66.171C295.928,67.835 292.717,68.667 289.506,68.667C284.209,68.667 279.78,66.956 276.217,63.534C272.655,60.088 270.873,55.811 270.873,50.702C270.873,45.592 272.678,41.28 276.287,37.764C279.897,34.249 284.327,32.491 289.577,32.491C292.952,32.491 296.139,33.299 299.139,34.917Z" style="fill-rule:nonzero;"/>
            <path d="M337.987,52.424L313.448,52.424C313.659,55.237 314.573,57.475 316.19,59.139C317.807,60.78 319.881,61.6 322.412,61.6C324.381,61.6 326.01,61.131 327.299,60.194C328.565,59.256 330.006,57.522 331.623,54.991L338.303,58.717C337.272,60.475 336.182,61.981 335.034,63.235C333.885,64.489 332.655,65.52 331.342,66.329C330.03,67.137 328.612,67.729 327.088,68.104C325.565,68.479 323.912,68.667 322.131,68.667C317.022,68.667 312.92,67.026 309.827,63.745C306.733,60.44 305.186,56.057 305.186,50.596C305.186,45.182 306.686,40.799 309.686,37.448C312.709,34.143 316.717,32.491 321.709,32.491C326.748,32.491 330.733,34.096 333.662,37.307C336.569,40.495 338.022,44.913 338.022,50.561L337.987,52.424ZM329.866,45.956C328.764,41.737 326.104,39.628 321.885,39.628C320.924,39.628 320.022,39.774 319.178,40.067C318.334,40.36 317.567,40.782 316.875,41.333C316.184,41.883 315.592,42.546 315.1,43.319C314.608,44.092 314.233,44.971 313.975,45.956L329.866,45.956Z" style="fill-rule:nonzero;"/>
        </g>
        <g transform="matrix(1,0,0,1,-0.43928,-0.35537)">
            <rect x="204.093" y="99.374" width="249.455" height="6.769" style="fill:rgb(30,64,175);"/>
        </g>
        <rect x="326.244" y="41.344" width="7.91" height="51.213" style="fill-rule:nonzero;"/>
    </g>
    <g transform="matrix(1,0,0,1,-37.2067,26.0201)">
        <g transform="matrix(72,0,0,72,57.3942,184.001)">
            <path d="M0.283,0.011C0.237,0.011 0.197,-0 0.162,-0.023C0.127,-0.046 0.1,-0.079 0.081,-0.121C0.061,-0.164 0.051,-0.214 0.051,-0.271C0.051,-0.329 0.061,-0.378 0.081,-0.42C0.1,-0.463 0.128,-0.495 0.163,-0.518C0.198,-0.541 0.238,-0.553 0.284,-0.553C0.32,-0.553 0.348,-0.547 0.368,-0.535C0.389,-0.523 0.405,-0.51 0.416,-0.495C0.427,-0.48 0.436,-0.468 0.442,-0.459L0.449,-0.459L0.449,-0.727L0.533,-0.727L0.533,-0L0.452,-0L0.452,-0.084L0.442,-0.084C0.436,-0.074 0.427,-0.061 0.415,-0.046C0.404,-0.031 0.388,-0.018 0.367,-0.006C0.346,0.006 0.318,0.011 0.283,0.011ZM0.294,-0.064C0.328,-0.064 0.356,-0.073 0.379,-0.09C0.402,-0.108 0.42,-0.133 0.432,-0.164C0.444,-0.195 0.45,-0.232 0.45,-0.273C0.45,-0.313 0.444,-0.349 0.433,-0.38C0.421,-0.41 0.403,-0.434 0.38,-0.452C0.357,-0.469 0.328,-0.477 0.294,-0.477C0.259,-0.477 0.229,-0.468 0.205,-0.45C0.182,-0.432 0.164,-0.407 0.153,-0.377C0.141,-0.346 0.135,-0.311 0.135,-0.273C0.135,-0.234 0.141,-0.199 0.153,-0.167C0.165,-0.135 0.183,-0.11 0.206,-0.092C0.23,-0.073 0.259,-0.064 0.294,-0.064Z" style="fill:rgb(30,41,59);fill-rule:nonzero;"/>
        </g>
        <g transform="matrix(72,0,0,72,102.087,184.001)">
            <path d="M0.298,0.011C0.249,0.011 0.206,-0 0.169,-0.024C0.132,-0.047 0.103,-0.08 0.082,-0.122C0.061,-0.164 0.051,-0.214 0.051,-0.27C0.051,-0.327 0.061,-0.376 0.082,-0.419C0.103,-0.461 0.132,-0.494 0.169,-0.517C0.206,-0.541 0.249,-0.553 0.298,-0.553C0.348,-0.553 0.391,-0.541 0.428,-0.517C0.465,-0.494 0.494,-0.461 0.514,-0.419C0.535,-0.376 0.545,-0.327 0.545,-0.27C0.545,-0.214 0.535,-0.164 0.514,-0.122C0.494,-0.08 0.465,-0.047 0.428,-0.024C0.391,-0 0.348,0.011 0.298,0.011ZM0.298,-0.064C0.336,-0.064 0.366,-0.074 0.391,-0.093C0.415,-0.112 0.433,-0.137 0.444,-0.168C0.456,-0.2 0.462,-0.233 0.462,-0.27C0.462,-0.306 0.456,-0.34 0.444,-0.372C0.433,-0.403 0.415,-0.429 0.391,-0.448C0.366,-0.468 0.336,-0.477 0.298,-0.477C0.261,-0.477 0.23,-0.468 0.206,-0.448C0.182,-0.429 0.164,-0.403 0.152,-0.372C0.141,-0.34 0.135,-0.306 0.135,-0.27C0.135,-0.233 0.141,-0.2 0.152,-0.168C0.164,-0.137 0.182,-0.112 0.206,-0.093C0.23,-0.074 0.261,-0.064 0.298,-0.064Z" style="fill:rgb(30,41,59);fill-rule:nonzero;"/>
        </g>
        <g transform="matrix(72,0,0,72,145.042,184.001)">
            <path d="M0.298,0.011C0.247,0.011 0.203,-0.001 0.166,-0.025C0.129,-0.049 0.101,-0.082 0.081,-0.125C0.061,-0.167 0.051,-0.215 0.051,-0.27C0.051,-0.325 0.061,-0.374 0.082,-0.417C0.102,-0.459 0.131,-0.492 0.168,-0.517C0.205,-0.541 0.248,-0.553 0.297,-0.553C0.335,-0.553 0.37,-0.545 0.401,-0.531C0.431,-0.517 0.457,-0.497 0.476,-0.472C0.496,-0.446 0.508,-0.416 0.513,-0.382L0.429,-0.382C0.423,-0.407 0.408,-0.429 0.387,-0.448C0.365,-0.468 0.335,-0.477 0.298,-0.477C0.266,-0.477 0.237,-0.469 0.213,-0.452C0.188,-0.435 0.169,-0.411 0.155,-0.381C0.142,-0.35 0.135,-0.314 0.135,-0.273C0.135,-0.231 0.142,-0.194 0.155,-0.163C0.168,-0.131 0.187,-0.107 0.212,-0.09C0.236,-0.073 0.265,-0.064 0.298,-0.064C0.32,-0.064 0.34,-0.068 0.358,-0.075C0.375,-0.083 0.39,-0.094 0.403,-0.108C0.415,-0.122 0.424,-0.139 0.429,-0.159L0.513,-0.159C0.508,-0.127 0.496,-0.098 0.478,-0.072C0.459,-0.047 0.435,-0.026 0.404,-0.011C0.374,0.004 0.339,0.011 0.298,0.011Z" style="fill:rgb(30,41,59);fill-rule:nonzero;"/>
        </g>
        <g transform="matrix(72,0,0,72,185.235,184.001)">
            <path d="M0.42,-0.223L0.42,-0.545L0.504,-0.545L0.504,-0L0.42,-0L0.42,-0.092L0.415,-0.092C0.402,-0.065 0.382,-0.041 0.355,-0.022C0.328,-0.003 0.294,0.007 0.253,0.007C0.219,0.007 0.188,-0 0.162,-0.015C0.135,-0.03 0.115,-0.053 0.099,-0.084C0.084,-0.114 0.077,-0.152 0.077,-0.199L0.077,-0.545L0.161,-0.545L0.161,-0.205C0.161,-0.165 0.172,-0.133 0.194,-0.109C0.216,-0.086 0.245,-0.074 0.28,-0.074C0.301,-0.074 0.322,-0.079 0.344,-0.09C0.365,-0.1 0.383,-0.117 0.398,-0.139C0.413,-0.161 0.42,-0.189 0.42,-0.223Z" style="fill:rgb(30,41,59);fill-rule:nonzero;"/>
        </g>
        <g transform="matrix(72,0,0,72,227.065,184.001)">
            <path d="M0.077,-0L0.077,-0.545L0.158,-0.545L0.158,-0.46L0.165,-0.46C0.176,-0.489 0.194,-0.512 0.22,-0.528C0.245,-0.544 0.276,-0.553 0.311,-0.553C0.347,-0.553 0.377,-0.544 0.401,-0.528C0.425,-0.512 0.444,-0.489 0.457,-0.46L0.463,-0.46C0.477,-0.488 0.498,-0.511 0.526,-0.528C0.554,-0.544 0.587,-0.553 0.626,-0.553C0.675,-0.553 0.715,-0.537 0.746,-0.507C0.777,-0.477 0.793,-0.429 0.793,-0.365L0.793,-0L0.709,-0L0.709,-0.365C0.709,-0.405 0.698,-0.434 0.676,-0.451C0.654,-0.469 0.628,-0.477 0.598,-0.477C0.56,-0.477 0.53,-0.466 0.509,-0.443C0.488,-0.42 0.477,-0.39 0.477,-0.355L0.477,-0L0.392,-0L0.392,-0.374C0.392,-0.405 0.382,-0.43 0.362,-0.449C0.342,-0.468 0.316,-0.477 0.284,-0.477C0.262,-0.477 0.242,-0.471 0.223,-0.46C0.204,-0.448 0.189,-0.432 0.178,-0.412C0.166,-0.391 0.161,-0.368 0.161,-0.341L0.161,-0L0.077,-0Z" style="fill:rgb(30,41,59);fill-rule:nonzero;"/>
        </g>
        <g transform="matrix(72,0,0,72,289.656,184.001)">
            <path d="M0.305,0.011C0.253,0.011 0.208,-0 0.17,-0.024C0.132,-0.047 0.102,-0.08 0.082,-0.122C0.061,-0.164 0.051,-0.213 0.051,-0.268C0.051,-0.324 0.061,-0.374 0.082,-0.416C0.102,-0.459 0.131,-0.492 0.168,-0.517C0.205,-0.541 0.248,-0.553 0.297,-0.553C0.325,-0.553 0.353,-0.548 0.381,-0.538C0.409,-0.529 0.434,-0.514 0.457,-0.492C0.479,-0.471 0.498,-0.443 0.511,-0.408C0.525,-0.374 0.531,-0.331 0.531,-0.28L0.531,-0.244L0.111,-0.244L0.111,-0.317L0.446,-0.317C0.446,-0.348 0.44,-0.375 0.428,-0.399C0.416,-0.423 0.398,-0.442 0.376,-0.456C0.354,-0.47 0.327,-0.477 0.297,-0.477C0.263,-0.477 0.235,-0.469 0.21,-0.453C0.186,-0.436 0.167,-0.415 0.154,-0.388C0.141,-0.362 0.135,-0.334 0.135,-0.304L0.135,-0.256C0.135,-0.214 0.142,-0.18 0.156,-0.151C0.171,-0.123 0.191,-0.101 0.216,-0.086C0.242,-0.071 0.272,-0.064 0.305,-0.064C0.327,-0.064 0.347,-0.067 0.365,-0.073C0.383,-0.08 0.399,-0.089 0.412,-0.102C0.425,-0.114 0.435,-0.13 0.442,-0.149L0.523,-0.126C0.514,-0.099 0.5,-0.075 0.48,-0.054C0.46,-0.033 0.435,-0.017 0.405,-0.006C0.376,0.006 0.342,0.011 0.305,0.011Z" style="fill:rgb(30,41,59);fill-rule:nonzero;"/>
        </g>
        <g transform="matrix(72,0,0,72,331.587,184.001)">
            <path d="M0.161,-0.328L0.161,-0L0.077,-0L0.077,-0.545L0.158,-0.545L0.158,-0.46L0.165,-0.46C0.178,-0.488 0.197,-0.51 0.223,-0.527C0.249,-0.544 0.283,-0.553 0.324,-0.553C0.361,-0.553 0.393,-0.545 0.421,-0.53C0.449,-0.515 0.47,-0.492 0.485,-0.462C0.501,-0.431 0.509,-0.393 0.509,-0.347L0.509,-0L0.425,-0L0.425,-0.341C0.425,-0.384 0.414,-0.417 0.391,-0.441C0.369,-0.465 0.339,-0.477 0.3,-0.477C0.273,-0.477 0.249,-0.471 0.228,-0.46C0.207,-0.448 0.191,-0.431 0.179,-0.409C0.167,-0.387 0.161,-0.36 0.161,-0.328Z" style="fill:rgb(30,41,59);fill-rule:nonzero;"/>
        </g>
        <g transform="matrix(72,0,0,72,373.724,184.001)">
            <path d="M0.314,-0.545L0.314,-0.474L0.031,-0.474L0.031,-0.545L0.314,-0.545ZM0.114,-0.676L0.197,-0.676L0.197,-0.156C0.197,-0.133 0.201,-0.115 0.208,-0.103C0.215,-0.091 0.224,-0.084 0.235,-0.08C0.246,-0.076 0.258,-0.074 0.27,-0.074C0.279,-0.074 0.287,-0.074 0.293,-0.075C0.299,-0.077 0.303,-0.077 0.307,-0.078L0.324,-0.003C0.318,-0.001 0.31,0.001 0.3,0.004C0.29,0.006 0.277,0.007 0.261,0.007C0.238,0.007 0.215,0.002 0.192,-0.008C0.169,-0.018 0.151,-0.034 0.136,-0.055C0.121,-0.076 0.114,-0.102 0.114,-0.134L0.114,-0.676Z" style="fill:rgb(30,41,59);fill-rule:nonzero;"/>
        </g>
        <g transform="matrix(72,0,0,72,399.906,184.001)">
            <path d="M0.237,0.013C0.203,0.013 0.171,0.006 0.143,-0.007C0.115,-0.02 0.093,-0.039 0.076,-0.064C0.059,-0.089 0.051,-0.119 0.051,-0.155C0.051,-0.186 0.057,-0.211 0.07,-0.231C0.082,-0.251 0.098,-0.266 0.119,-0.277C0.14,-0.288 0.162,-0.296 0.187,-0.302C0.212,-0.308 0.237,-0.312 0.263,-0.315C0.296,-0.32 0.323,-0.323 0.344,-0.325C0.364,-0.327 0.379,-0.331 0.389,-0.337C0.399,-0.342 0.403,-0.352 0.403,-0.365L0.403,-0.368C0.403,-0.403 0.394,-0.43 0.375,-0.45C0.356,-0.469 0.327,-0.479 0.288,-0.479C0.248,-0.479 0.217,-0.47 0.194,-0.452C0.172,-0.435 0.156,-0.416 0.146,-0.396L0.067,-0.425C0.081,-0.458 0.1,-0.484 0.124,-0.502C0.148,-0.521 0.174,-0.534 0.202,-0.541C0.23,-0.549 0.258,-0.553 0.286,-0.553C0.303,-0.553 0.323,-0.55 0.346,-0.546C0.369,-0.542 0.391,-0.534 0.412,-0.521C0.434,-0.508 0.452,-0.489 0.466,-0.463C0.48,-0.437 0.487,-0.403 0.487,-0.359L0.487,-0L0.403,-0L0.403,-0.074L0.399,-0.074C0.393,-0.062 0.384,-0.049 0.371,-0.036C0.357,-0.022 0.34,-0.011 0.318,-0.001C0.296,0.008 0.269,0.013 0.237,0.013ZM0.25,-0.063C0.283,-0.063 0.311,-0.069 0.334,-0.082C0.357,-0.095 0.374,-0.112 0.386,-0.132C0.398,-0.153 0.403,-0.175 0.403,-0.197L0.403,-0.274C0.4,-0.27 0.392,-0.266 0.38,-0.263C0.368,-0.259 0.354,-0.256 0.339,-0.254C0.323,-0.251 0.308,-0.249 0.294,-0.247C0.279,-0.246 0.268,-0.244 0.259,-0.243C0.237,-0.24 0.216,-0.235 0.198,-0.229C0.179,-0.223 0.164,-0.214 0.152,-0.201C0.141,-0.189 0.135,-0.172 0.135,-0.151C0.135,-0.121 0.146,-0.099 0.167,-0.085C0.189,-0.07 0.217,-0.063 0.25,-0.063Z" style="fill:rgb(30,41,59);fill-rule:nonzero;"/>
        </g>
        <g transform="matrix(72,0,0,72,440.508,184.001)">
            <path d="M0.314,-0.545L0.314,-0.474L0.031,-0.474L0.031,-0.545L0.314,-0.545ZM0.114,-0.676L0.197,-0.676L0.197,-0.156C0.197,-0.133 0.201,-0.115 0.208,-0.103C0.215,-0.091 0.224,-0.084 0.235,-0.08C0.246,-0.076 0.258,-0.074 0.27,-0.074C0.279,-0.074 0.287,-0.074 0.293,-0.075C0.299,-0.077 0.303,-0.077 0.307,-0.078L0.324,-0.003C0.318,-0.001 0.31,0.001 0.3,0.004C0.29,0.006 0.277,0.007 0.261,0.007C0.238,0.007 0.215,0.002 0.192,-0.008C0.169,-0.018 0.151,-0.034 0.136,-0.055C0.121,-0.076 0.114,-0.102 0.114,-0.134L0.114,-0.676Z" style="fill:rgb(30,41,59);fill-rule:nonzero;"/>
        </g>
        <g transform="matrix(72,0,0,72,466.69,184.001)">
            <path d="M0.077,-0L0.077,-0.545L0.161,-0.545L0.161,-0L0.077,-0ZM0.119,-0.636C0.103,-0.636 0.089,-0.642 0.077,-0.653C0.066,-0.664 0.06,-0.678 0.06,-0.693C0.06,-0.709 0.066,-0.722 0.077,-0.733C0.089,-0.744 0.103,-0.75 0.119,-0.75C0.136,-0.75 0.15,-0.744 0.161,-0.733C0.173,-0.722 0.179,-0.709 0.179,-0.693C0.179,-0.678 0.173,-0.664 0.161,-0.653C0.15,-0.642 0.136,-0.636 0.119,-0.636Z" style="fill:rgb(30,41,59);fill-rule:nonzero;"/>
        </g>
        <g transform="matrix(72,0,0,72,483.769,184.001)">
            <path d="M0.298,0.011C0.249,0.011 0.206,-0 0.169,-0.024C0.132,-0.047 0.103,-0.08 0.082,-0.122C0.061,-0.164 0.051,-0.214 0.051,-0.27C0.051,-0.327 0.061,-0.376 0.082,-0.419C0.103,-0.461 0.132,-0.494 0.169,-0.517C0.206,-0.541 0.249,-0.553 0.298,-0.553C0.348,-0.553 0.391,-0.541 0.428,-0.517C0.465,-0.494 0.494,-0.461 0.514,-0.419C0.535,-0.376 0.545,-0.327 0.545,-0.27C0.545,-0.214 0.535,-0.164 0.514,-0.122C0.494,-0.08 0.465,-0.047 0.428,-0.024C0.391,-0 0.348,0.011 0.298,0.011ZM0.298,-0.064C0.336,-0.064 0.366,-0.074 0.391,-0.093C0.415,-0.112 0.433,-0.137 0.444,-0.168C0.456,-0.2 0.462,-0.233 0.462,-0.27C0.462,-0.306 0.456,-0.34 0.444,-0.372C0.433,-0.403 0.415,-0.429 0.391,-0.448C0.366,-0.468 0.336,-0.477 0.298,-0.477C0.261,-0.477 0.23,-0.468 0.206,-0.448C0.182,-0.429 0.164,-0.403 0.152,-0.372C0.141,-0.34 0.135,-0.306 0.135,-0.27C0.135,-0.233 0.141,-0.2 0.152,-0.168C0.164,-0.137 0.182,-0.112 0.206,-0.093C0.23,-0.074 0.261,-0.064 0.298,-0.064Z" style="fill:rgb(30,41,59);fill-rule:nonzero;"/>
        </g>
        <g transform="matrix(72,0,0,72,526.724,184.001)">
            <path d="M0.161,-0.328L0.161,-0L0.077,-0L0.077,-0.545L0.158,-0.545L0.158,-0.46L0.165,-0.46C0.178,-0.488 0.197,-0.51 0.223,-0.527C0.249,-0.544 0.283,-0.553 0.324,-0.553C0.361,-0.553 0.393,-0.545 0.421,-0.53C0.449,-0.515 0.47,-0.492 0.485,-0.462C0.501,-0.431 0.509,-0.393 0.509,-0.347L0.509,-0L0.425,-0L0.425,-0.341C0.425,-0.384 0.414,-0.417 0.391,-0.441C0.369,-0.465 0.339,-0.477 0.3,-0.477C0.273,-0.477 0.249,-0.471 0.228,-0.46C0.207,-0.448 0.191,-0.431 0.179,-0.409C0.167,-0.387 0.161,-0.36 0.161,-0.328Z" style="fill:rgb(30,41,59);fill-rule:nonzero;"/>
        </g>
    </g>
</svg>
