<?xml version="1.0" encoding="UTF-8" standalone="no"?>
<svg
   xmlns:dc="http://purl.org/dc/elements/1.1/"
   xmlns:cc="http://creativecommons.org/ns#"
   xmlns:rdf="http://www.w3.org/1999/02/22-rdf-syntax-ns#"
   xmlns:svg="http://www.w3.org/2000/svg"
   xmlns="http://www.w3.org/2000/svg"
   xmlns:sodipodi="http://sodipodi.sourceforge.net/DTD/sodipodi-0.dtd"
   xmlns:inkscape="http://www.inkscape.org/namespaces/inkscape"
   inkscape:version="1.0 (4035a4f, 2020-05-01)"
   sodipodi:docname="Favicon.svg"
   version="1.1"
   id="svg2"
   xml:space="preserve"
   width="100"
   height="100"
   viewBox="0 0 100 100"><sodipodi:namedview
     fit-margin-bottom="0"
     fit-margin-right="0"
     fit-margin-left="0"
     fit-margin-top="0"
     inkscape:current-layer="g12"
     inkscape:window-maximized="0"
     inkscape:window-y="23"
     inkscape:window-x="0"
     inkscape:cy="17.692656"
     inkscape:cx="51.323493"
     inkscape:zoom="1.5912263"
     showgrid="false"
     id="namedview34"
     inkscape:window-height="901"
     inkscape:window-width="1618"
     inkscape:pageshadow="2"
     inkscape:pageopacity="0"
     guidetolerance="10"
     gridtolerance="10"
     objecttolerance="10"
     borderopacity="1"
     bordercolor="#666666"
     pagecolor="#ffffff" /><metadata
     id="metadata8"><rdf:RDF><cc:Work
         rdf:about=""><dc:format>image/svg+xml</dc:format><dc:type
           rdf:resource="http://purl.org/dc/dcmitype/StillImage" /><dc:title></dc:title></cc:Work></rdf:RDF></metadata><defs
     id="defs6" /><g
     id="g10"
     transform="matrix(1.3333333,0,0,-1.3333333,-14.9292,78.242665)"><g
       id="g12"
       transform="scale(0.1)"><path
         sodipodi:nodetypes="sssssccssscc"
         d="m 495.39501,63.78147 c -81.133,0 -147.145,66.008 -147.145,147.129 0,81.121 66.012,147.141 147.145,147.141 81.125,0 147.132,-66.02 147.132,-147.141 0,-81.121 -66.007,-147.129 -147.132,-147.129 z M 915.00003,284.053 779.19901,284.051 c -32.625,126.449 -147.308,220.269 -283.804,220.269 -161.793,0 -293.426,-131.621 -293.426,-293.41 0,-161.789 131.633,-293.41 293.426,-293.41 136.496,0 251.179,93.8203 283.804,220.281 l 135.80102,-9.7e-4"
         style="fill:#5ecbf5;fill-opacity:1;fill-rule:nonzero;stroke:none"
         id="path16" /></g></g></svg>
