<?xml version="1.0" encoding="UTF-8" standalone="no"?>
<!DOCTYPE svg PUBLIC "-//W3C//DTD SVG 1.1//EN" "http://www.w3.org/Graphics/SVG/1.1/DTD/svg11.dtd">
<svg width="100%" height="100%" viewBox="0 0 550 160" version="1.1" xmlns="http://www.w3.org/2000/svg" xmlns:xlink="http://www.w3.org/1999/xlink" xml:space="preserve" xmlns:serif="http://www.serif.com/" style="fill-rule:evenodd;clip-rule:evenodd;stroke-linejoin:round;stroke-miterlimit:2;">
    <g transform="matrix(2.07125,0,0,2.07125,-405.211,-72.3724)">
        <g transform="matrix(1,0,0,1,114.855,24.8752)">
            <path d="M88.799,33.44L96.744,33.44L96.744,36.604C99.51,33.862 102.627,32.491 106.096,32.491C110.08,32.491 113.186,33.745 115.412,36.253C117.334,38.385 118.295,41.866 118.295,46.694L118.295,67.682L110.35,67.682L110.35,48.557C110.35,45.182 109.881,42.85 108.944,41.561C108.03,40.249 106.366,39.592 103.952,39.592C101.327,39.592 99.463,40.46 98.362,42.194C97.284,43.905 96.744,46.893 96.744,51.159L96.744,67.682L88.799,67.682L88.799,33.44Z" style="fill-rule:nonzero;"/>
            <path d="M159.463,52.424L134.924,52.424C135.135,55.237 136.049,57.475 137.666,59.139C139.284,60.78 141.358,61.6 143.889,61.6C145.858,61.6 147.487,61.131 148.776,60.194C150.041,59.256 151.483,57.522 153.1,54.991L159.78,58.717C158.748,60.475 157.659,61.981 156.51,63.235C155.362,64.489 154.131,65.52 152.819,66.329C151.506,67.137 150.088,67.729 148.565,68.104C147.041,68.479 145.389,68.667 143.608,68.667C138.498,68.667 134.397,67.026 131.303,63.745C128.209,60.44 126.662,56.057 126.662,50.596C126.662,45.182 128.162,40.799 131.162,37.448C134.186,34.143 138.194,32.491 143.186,32.491C148.225,32.491 152.209,34.096 155.139,37.307C158.045,40.495 159.498,44.913 159.498,50.561L159.463,52.424ZM151.342,45.956C150.241,41.737 147.58,39.628 143.362,39.628C142.401,39.628 141.498,39.774 140.655,40.067C139.811,40.36 139.043,40.782 138.352,41.333C137.66,41.883 137.069,42.546 136.577,43.319C136.084,44.092 135.709,44.971 135.452,45.956L151.342,45.956Z" style="fill-rule:nonzero;"/>
            <path d="M166.494,50.315C166.494,45.37 168.264,41.163 171.803,37.694C175.342,34.225 179.655,32.491 184.741,32.491C189.85,32.491 194.186,34.237 197.748,37.729C201.264,41.221 203.022,45.51 203.022,50.596C203.022,55.729 201.252,60.03 197.713,63.499C194.151,66.944 189.78,68.667 184.6,68.667C179.467,68.667 175.166,66.909 171.698,63.393C168.229,59.924 166.494,55.565 166.494,50.315ZM174.58,50.456C174.58,53.878 175.494,56.585 177.323,58.577C179.198,60.592 181.67,61.6 184.741,61.6C187.834,61.6 190.307,60.604 192.159,58.612C194.01,56.62 194.936,53.96 194.936,50.631C194.936,47.303 194.01,44.643 192.159,42.651C190.284,40.635 187.811,39.628 184.741,39.628C181.717,39.628 179.268,40.635 177.393,42.651C175.518,44.667 174.58,47.268 174.58,50.456Z" style="fill-rule:nonzero;"/>
            <path d="M254.561,33.44L262.506,33.44L262.506,67.682L254.561,67.682L254.561,64.096C251.303,67.143 247.799,68.667 244.049,68.667C239.315,68.667 235.401,66.956 232.307,63.534C229.237,60.042 227.702,55.682 227.702,50.456C227.702,45.323 229.237,41.046 232.307,37.624C235.377,34.202 239.221,32.491 243.838,32.491C247.823,32.491 251.397,34.131 254.561,37.413L254.561,33.44ZM235.787,50.456C235.787,53.737 236.666,56.409 238.424,58.471C240.229,60.557 242.502,61.6 245.244,61.6C248.174,61.6 250.541,60.592 252.346,58.577C254.151,56.491 255.053,53.842 255.053,50.631C255.053,47.421 254.151,44.772 252.346,42.686C250.541,40.647 248.198,39.628 245.315,39.628C242.596,39.628 240.323,40.659 238.494,42.721C236.69,44.807 235.787,47.385 235.787,50.456Z" style="fill-rule:nonzero;"/>
            <path d="M299.139,34.917L299.139,45.428C297.334,43.225 295.717,41.713 294.287,40.893C292.881,40.049 291.229,39.628 289.33,39.628C286.354,39.628 283.881,40.671 281.912,42.756C279.944,44.842 278.959,47.456 278.959,50.596C278.959,53.807 279.909,56.444 281.807,58.506C283.729,60.569 286.178,61.6 289.155,61.6C291.053,61.6 292.729,61.19 294.182,60.37C295.588,59.573 297.241,58.026 299.139,55.729L299.139,66.171C295.928,67.835 292.717,68.667 289.506,68.667C284.209,68.667 279.78,66.956 276.217,63.534C272.655,60.088 270.873,55.811 270.873,50.702C270.873,45.592 272.678,41.28 276.287,37.764C279.897,34.249 284.327,32.491 289.577,32.491C292.952,32.491 296.139,33.299 299.139,34.917Z" style="fill-rule:nonzero;"/>
            <path d="M337.987,52.424L313.448,52.424C313.659,55.237 314.573,57.475 316.19,59.139C317.807,60.78 319.881,61.6 322.412,61.6C324.381,61.6 326.01,61.131 327.299,60.194C328.565,59.256 330.006,57.522 331.623,54.991L338.303,58.717C337.272,60.475 336.182,61.981 335.034,63.235C333.885,64.489 332.655,65.52 331.342,66.329C330.03,67.137 328.612,67.729 327.088,68.104C325.565,68.479 323.912,68.667 322.131,68.667C317.022,68.667 312.92,67.026 309.827,63.745C306.733,60.44 305.186,56.057 305.186,50.596C305.186,45.182 306.686,40.799 309.686,37.448C312.709,34.143 316.717,32.491 321.709,32.491C326.748,32.491 330.733,34.096 333.662,37.307C336.569,40.495 338.022,44.913 338.022,50.561L337.987,52.424ZM329.866,45.956C328.764,41.737 326.104,39.628 321.885,39.628C320.924,39.628 320.022,39.774 319.178,40.067C318.334,40.36 317.567,40.782 316.875,41.333C316.184,41.883 315.592,42.546 315.1,43.319C314.608,44.092 314.233,44.971 313.975,45.956L329.866,45.956Z" style="fill-rule:nonzero;"/>
        </g>
        <g transform="matrix(1,0,0,1,-0.43928,-0.35537)">
            <rect x="204.093" y="99.374" width="249.455" height="6.769" style="fill:rgb(30,64,175);"/>
        </g>
        <rect x="326.244" y="41.344" width="7.91" height="51.213" style="fill-rule:nonzero;"/>
    </g>
</svg>
