<svg width="1499.9999999999998" height="500.00000000000006" xmlns="http://www.w3.org/2000/svg" xml:space="preserve" version="1.1" enable-background="new 0 0 500 500">
 <defs>
  <radialGradient gradientUnits="userSpaceOnUse" r="0" cy="20.8" cx="-25.872" id="t">
   <stop offset="0" stop-color="#F6F6F6"/>
   <stop offset="0.2275" stop-color="#F2F2F2"/>
   <stop offset="0.5097" stop-color="#E7E7E7"/>
   <stop offset="0.8195" stop-color="#D4D4D4"/>
   <stop offset="1" stop-color="#C6C6C6"/>
  </radialGradient>
  <linearGradient y2="0.50015" y1="0.50015" x2="1.00118" x1="0.00153" id="u">
   <stop offset="0" stop-color="#2C6B35"/>
   <stop offset="1" stop-color="#92C144"/>
  </linearGradient>
  <linearGradient y2="0.5" y1="0.5" x2="0.99943" x1="-0.00057" id="v">
   <stop offset="0" stop-color="#2C6B35"/>
   <stop offset="1" stop-color="#92C144"/>
  </linearGradient>
  <linearGradient y2="0.50036" y1="0.50036" x2="1.00005" x1="0.00077" id="w">
   <stop offset="0" stop-color="#2C6B35"/>
   <stop offset="1" stop-color="#92C144"/>
  </linearGradient>
  <linearGradient y2="0.50014" y1="0.50014" x2="1" x1="-0.0008" id="x">
   <stop offset="0" stop-color="#2C6B35"/>
   <stop offset="1" stop-color="#92C144"/>
  </linearGradient>
  <linearGradient y2="0.16765" y1="0.88259" x2="0.66446" x1="0.47027" id="y">
   <stop offset="0" stop-color="#92C144"/>
   <stop offset="1" stop-color="#2C6B35"/>
  </linearGradient>
  <linearGradient y2="0.50045" y1="0.50045" x2="0.99977" x1="-0.00025" id="z">
   <stop offset="0" stop-color="#92C144"/>
   <stop offset="1" stop-color="#2C6B35"/>
  </linearGradient>
  <linearGradient y2="0.4999" y1="0.4999" x2="1.00005" x1="0.00026" id="aa">
   <stop offset="0" stop-color="#92C144"/>
   <stop offset="1" stop-color="#2C6B35"/>
  </linearGradient>
  <linearGradient y2="0.50041" y1="0.50041" x2="1.00025" x1="0.00037" id="ab">
   <stop offset="0" stop-color="#92C144"/>
   <stop offset="1" stop-color="#2C6B35"/>
  </linearGradient>
  <linearGradient y2="0.94044" y1="-0.00485" x2="-0.04629" x1="0.90074" id="o">
   <stop offset="0" stop-color="#7BC8CD"/>
   <stop offset="1" stop-opacity="0" stop-color="#7BC8CD"/>
  </linearGradient>
  <linearGradient y2="0.5" y1="0.5" x2="1.00004" x1="0.00008" id="p">
   <stop offset="0" stop-color="#19598C"/>
   <stop offset="1" stop-opacity="0" stop-color="#19598C"/>
  </linearGradient>
  <linearGradient y2="0.49992" y1="0.49992" x2="0.99962" x1="-0.00066" id="q">
   <stop offset="0" stop-color="#2C6B35"/>
   <stop offset="0.4988" stop-color="#92C144"/>
   <stop offset="1" stop-color="#2C6B35"/>
  </linearGradient>
  <linearGradient y2="0.49873" y1="0.49873" x2="0.99929" x1="-0.00057" id="r">
   <stop offset="0" stop-color="#2C6B35"/>
   <stop offset="0.4988" stop-color="#92C144"/>
   <stop offset="1" stop-color="#2C6B35"/>
  </linearGradient>
  <linearGradient y2="0.49995" y1="0.49995" x2="0.99978" x1="-0.00024" id="s">
   <stop offset="0" stop-color="#2C6B35"/>
   <stop offset="0.4988" stop-color="#92C144"/>
   <stop offset="1" stop-color="#2C6B35"/>
  </linearGradient>
 </defs>
 <g>
  <title>Layer 1</title>
  <path id="svg_1" fill="url(#t)" d="m-25.9,20.8"/>
  <g stroke="null" id="svg_15">
   <path stroke="null" id="svg_2" fill="url(#u)" d="m88.07801,378.86314c-32.29822,22.2662 -53.70803,38.41531 -53.70803,61.04854c0,10.27671 0,19.81936 -0.12234,28.75031c-0.61171,1.4681 -1.10108,2.81386 -1.71278,4.4043c-4.15962,-92.49037 -12.6012,-138.61321 -13.45759,-153.78359c-3.30323,-62.02727 18.84063,-144.36327 93.34676,-174.09232c-29.23968,67.28797 -54.1974,145.83137 -24.34601,233.67275z"/>
   <path stroke="null" id="svg_3" fill="url(#v)" d="m155.48832,329.92643c-24.83538,20.30873 -48.08031,35.72379 -67.28797,48.9367c-29.97373,-87.84138 -5.01601,-166.38479 24.34601,-233.67275c7.58519,-3.05854 15.65974,-5.50538 24.34601,-7.34051c7.95221,-1.71278 15.65974,-3.79259 23.12259,-6.11709c-19.20766,49.30373 -27.03753,134.20891 -4.52664,198.19365z"/>
   <path stroke="null" id="svg_4" fill="url(#w)" d="m198.67496,290.41005l-0.73405,0.73405c-14.43633,14.68101 -28.75031,27.40455 -42.57493,38.66c-22.51088,-63.98474 -14.55867,-148.76758 4.52664,-198.19365c29.60671,-9.29797 55.05379,-23.36728 75.60721,-38.66c5.01601,47.22392 8.07456,149.99099 -36.82487,197.45959z"/>
   <path stroke="null" id="svg_5" fill="url(#x)" d="m290.92064,25.90717c-2.32449,62.02727 -13.57993,171.15612 -60.92619,229.51314c-10.39905,12.72354 -20.7981,24.34601 -31.19715,34.98974c44.77708,-47.4686 41.71854,-150.23568 36.82487,-197.33725c30.70778,-23.12259 50.16012,-49.18139 55.29847,-67.16562z"/>
   <path stroke="null" id="svg_6" fill="url(#y)" d="m349.52234,168.43532c-46.24518,124.66625 -151.45909,122.83112 -151.45909,122.83112l0.73405,-0.73405c10.39905,-10.64373 20.7981,-22.14386 31.19715,-34.98974c47.4686,-58.35702 58.6017,-167.48586 60.92619,-229.51314c0.73405,-2.69152 1.22342,-5.13835 1.34576,-7.46285c8.80861,9.78734 44.04303,75.24018 57.25594,149.86865z"/>
   <path stroke="null" id="svg_7" fill="url(#z)" d="m319.67095,333.59669c-69.7348,11.98949 -164.18264,-3.79259 -164.18264,-3.79259c13.82462,-11.25544 28.1386,-23.97898 42.57493,-38.66c0,0 105.21391,1.83513 151.45909,-122.83112c10.03202,56.76657 7.21816,118.6715 -29.85139,165.28371z"/>
   <path stroke="null" id="svg_8" fill="url(#aa)" d="m319.67095,333.59669c-11.25544,14.19164 -25.81411,27.03753 -44.16537,37.8036c-15.04804,8.44158 -28.995,15.65974 -42.08556,21.89917c-74.75081,4.52664 -145.34201,-14.43633 -145.34201,-14.43633c19.33,-13.21291 42.45259,-28.75031 67.28797,-48.9367c0.12234,0 94.57018,15.78209 164.30498,3.67025z"/>
   <path stroke="null" id="svg_9" fill="url(#ab)" d="m233.42001,393.29946c-141.18239,67.16562 -175.31574,15.29272 -199.17238,75.36252c0,-8.93095 0.12234,-18.47361 0.12234,-28.75031c0,-22.63322 21.40981,-38.78234 53.70803,-61.04854c0,0 70.59119,18.96297 145.34201,14.43633z"/>
   <path stroke="null" id="svg_10" opacity="0.44" fill="url(#o)" d="m229.62742,256.03201c47.4686,-58.35702 58.11233,-167.48586 60.55917,-229.51314c-9.54266,32.90993 -66.55392,93.22442 -153.5389,111.82037c-94.08081,20.18639 -121.24068,113.16612 -117.69277,181.55517c0.85639,15.17038 9.29797,61.29322 13.45759,153.78359c0.61171,-1.59044 1.10108,-3.05854 1.71278,-4.4043c0,-8.93095 0.12234,-18.47361 0.12234,-28.75031c-0.24468,-49.18139 100.32024,-67.65499 195.37979,-184.49137z"/>
   <path stroke="null" id="svg_11" fill="url(#p)" d="m291.65469,19.91242c-0.12234,2.32449 -0.61171,4.77133 -1.34576,7.46285c-2.32449,62.02727 -13.57993,171.15612 -60.92619,229.51314c-95.05954,116.71404 -195.62447,135.18764 -195.62447,184.36903c0,10.27671 0,19.81936 -0.12234,28.75031c25.93645,-65.69752 64.35176,2.32449 241.1356,-97.2617c157.20916,-92.36803 34.25569,-333.38129 16.88316,-352.83363z"/>
   <path stroke="null" id="svg_12" fill="url(#q)" d="m232.80831,258.47885c47.4686,-58.35702 56.76657,-170.42207 59.21341,-232.327c0.73405,-2.69152 0.36703,-5.13835 0.48937,-7.34051c0,0 0,-0.12234 -0.12234,-0.12234c-0.12234,2.32449 -0.61171,4.77133 -1.34576,7.46285c-2.32449,62.02727 -14.0693,171.15612 -61.41556,229.51314c-94.9372,116.83638 -195.50213,135.30998 -195.50213,184.49137c0,10.27671 0,19.81936 -0.12234,28.75031c0,-8.93095 0,-21.04278 3.67025,-30.83012c22.51088,-59.58044 100.1979,-62.76132 195.1351,-179.5977z"/>
   <path stroke="null" id="svg_13" fill="url(#r)" d="m33.88061,468.90667c15.41506,-38.90468 35.23443,-30.83012 85.63923,-38.66c-50.77183,5.2607 -71.69227,-3.91494 -85.63923,38.66z"/>
   <path stroke="null" id="svg_14" fill="url(#s)" d="m143.62117,140.5414c87.10733,-18.59595 137.87916,-81.84664 147.42182,-114.75657c-9.54266,32.90993 -67.04328,93.22442 -154.02827,111.82037c-94.08081,20.18639 -121.24068,113.16612 -117.69277,181.55517c0.85639,15.17038 9.29797,61.29322 13.45759,153.78359c-4.15962,-92.49037 -5.99475,-135.79935 -6.7288,-150.96973c-3.67025,-68.2667 23.36728,-161.36878 117.57043,-181.43282z"/>
  </g>
  <text transform="matrix(3.47031 0 0 3.47031 -1150.74 -404.204)" stroke="null" font-style="normal" font-weight="bold" xml:space="preserve" text-anchor="start" font-family="sans-serif" font-size="72" stroke-width="0" id="svg_16" y="218.3824" x="450.01224" fill="#2C6B35">PlantDB</text>
 </g>
</svg>