<?xml version="1.0" encoding="UTF-8" standalone="no"?>
<svg
   xmlns:dc="http://purl.org/dc/elements/1.1/"
   xmlns:cc="http://creativecommons.org/ns#"
   xmlns:rdf="http://www.w3.org/1999/02/22-rdf-syntax-ns#"
   xmlns:svg="http://www.w3.org/2000/svg"
   xmlns="http://www.w3.org/2000/svg"
   viewBox="0 0 1450.6133 444.74667"
   height="444.74667"
   width="1450.6133"
   xml:space="preserve"
   id="svg2"
   version="1.1"><metadata
     id="metadata8"><rdf:RDF><cc:Work
         rdf:about=""><dc:format>image/svg+xml</dc:format><dc:type
           rdf:resource="http://purl.org/dc/dcmitype/StillImage" /></cc:Work></rdf:RDF></metadata><defs
     id="defs6" /><g
     transform="matrix(1.3333333,0,0,-1.3333333,0,444.74667)"
     id="g10"><g
       transform="scale(0.1)"
       id="g12"><path
         id="path14"
         style="fill:#5ecbf5;fill-opacity:1;fill-rule:nonzero;stroke:none"
         d="m 1854.16,3189.31 c 81.13,0 147.14,-66.01 147.14,-147.13 0,-81.14 -66.01,-147.15 -147.14,-147.15 -81.14,0 -147.14,66.01 -147.14,147.15 0,81.12 66,147.13 147.14,147.13 z M 146.277,1039.04 v 1930 H 1570.34 c 32.63,-126.45 147.31,-220.29 283.82,-220.29 161.78,0 293.42,131.64 293.42,293.43 0,161.79 -131.64,293.41 -293.42,293.41 -136.51,0 -251.19,-93.82 -283.82,-220.27 H 73.1367 c -40.3906,0 -73.13279375,-32.75 -73.13279375,-73.14 V 1039.04 c 0,-40.399 32.74219375,-73.142 73.13279375,-73.142 40.3903,0 73.1403,32.743 73.1403,73.142" /><path
         id="path16"
         style="fill:#5ecbf5;fill-opacity:1;fill-rule:nonzero;stroke:none"
         d="m 405.395,146.281 c -81.133,0 -147.145,66.008 -147.145,147.129 0,81.121 66.012,147.141 147.145,147.141 81.125,0 147.132,-66.02 147.132,-147.141 0,-81.121 -66.007,-147.129 -147.132,-147.129 z M 2186.41,2369.69 c -40.39,0 -73.14,-32.74 -73.14,-73.14 V 366.551 H 689.199 C 656.574,493 541.891,586.82 405.395,586.82 243.602,586.82 111.969,455.199 111.969,293.41 111.969,131.621 243.602,0 405.395,0 541.891,0 656.574,93.8203 689.199,220.281 H 2186.41 c 40.39,0 73.14,32.731 73.14,73.129 v 2003.14 c 0,40.4 -32.75,73.14 -73.14,73.14" /><path
         id="path18"
         style="fill:#5ecbf5;fill-opacity:1;fill-rule:nonzero;stroke:none"
         d="M 1803.47,2412.09 H 456.07 c -40.39,0 -73.136,-32.74 -73.136,-73.14 0,-40.4 32.746,-73.14 73.136,-73.14 h 1347.4 c 40.39,0 73.14,32.74 73.14,73.14 0,40.4 -32.75,73.14 -73.14,73.14" /><path
         id="path20"
         style="fill:#5ecbf5;fill-opacity:1;fill-rule:nonzero;stroke:none"
         d="m 1876.61,1444.07 c 0,40.4 -32.75,73.15 -73.14,73.15 H 456.07 c -40.39,0 -73.136,-32.75 -73.136,-73.15 0,-40.39 32.746,-73.13 73.136,-73.13 h 1347.4 c 40.39,0 73.14,32.74 73.14,73.13" /><path
         id="path22"
         style="fill:#5ecbf5;fill-opacity:1;fill-rule:nonzero;stroke:none"
         d="m 456.07,1069.78 c -40.39,0 -73.136,-32.74 -73.136,-73.139 0,-40.403 32.746,-73.129 73.136,-73.129 h 542.914 c 40.396,0 73.146,32.726 73.146,73.129 0,40.399 -32.75,73.139 -73.146,73.139 H 456.07" /><path
         id="path24"
         style="fill:#5ecbf5;fill-opacity:1;fill-rule:nonzero;stroke:none"
         d="m 1484.34,923.512 h 319.13 c 40.39,0 73.14,32.726 73.14,73.129 0,40.399 -32.75,73.139 -73.14,73.139 h -319.13 c -40.39,0 -73.14,-32.74 -73.14,-73.139 0,-40.403 32.75,-73.129 73.14,-73.129" /><path
         id="path26"
         style="fill:#5ecbf5;fill-opacity:1;fill-rule:nonzero;stroke:none"
         d="m 1036.88,1891.51 c 0,-40.39 32.75,-73.13 73.14,-73.13 h 693.45 c 40.39,0 73.14,32.74 73.14,73.13 0,40.4 -32.75,73.14 -73.14,73.14 h -693.45 c -40.39,0 -73.14,-32.74 -73.14,-73.14" /><path
         id="path28"
         style="fill:#5ecbf5;fill-opacity:1;fill-rule:nonzero;stroke:none"
         d="m 382.934,1891.51 c 0,-40.39 32.746,-73.13 73.136,-73.13 h 316.649 c 40.39,0 73.133,32.74 73.133,73.13 0,40.4 -32.743,73.14 -73.133,73.14 H 456.07 c -40.39,0 -73.136,-32.74 -73.136,-73.14" /><path
         id="path30"
         style="fill:#5ecbf5;fill-opacity:1;fill-rule:nonzero;stroke:none"
         d="M 3022.09,1983.11 V 1196.82 H 2865.1 v 786.29 h -282.06 v 143.7 h 721.1 v -143.7 h -282.05" /><path
         id="path32"
         style="fill:#5ecbf5;fill-opacity:1;fill-rule:nonzero;stroke:none"
         d="M 4127.7,2126.74 H 3474.34 V 1979.2 h 653.36 z m -496.29,-782.25 v 248.87 h 445.73 v 139.67 h -602.8 v -536.28 h 669.31 v 147.74 h -512.24" /><path
         id="path34"
         style="fill:#5ecbf5;fill-opacity:1;fill-rule:nonzero;stroke:none"
         d="m 4768.93,1339.18 c 54.09,0 100.65,9.08 139.69,27.28 39.02,18.17 79.83,47.23 122.41,87.14 l 101.11,-103.77 c -98.46,-109.1 -217.99,-163.66 -358.56,-163.66 -140.58,0 -257.23,45.26 -349.91,135.71 -92.69,90.48 -139.02,204.89 -139.02,343.26 0,138.36 47.23,253.66 141.69,345.92 94.45,92.23 213.74,138.35 357.89,138.35 144.12,0 264.52,-53.22 361.21,-159.64 l -99.78,-109.09 c -44.37,42.57 -86.28,72.28 -125.73,89.14 -39.48,16.83 -85.81,25.28 -139.03,25.28 -94.03,0 -172.96,-30.4 -236.83,-91.15 -63.85,-60.77 -95.78,-138.35 -95.78,-232.81 0,-94.47 31.7,-173.43 95.13,-236.83 63.4,-63.42 138.56,-95.13 225.51,-95.13" /><path
         id="path36"
         style="fill:#5ecbf5;fill-opacity:1;fill-rule:nonzero;stroke:none"
         d="m 5323.71,1196.82 v 929.99 h 156.99 v -403.12 h 461.66 v 403.12 h 156.99 v -929.99 h -156.99 v 380.52 H 5480.7 v -380.52 h -156.99" /><path
         id="path38"
         style="fill:#5ecbf5;fill-opacity:1;fill-rule:nonzero;stroke:none"
         d="m 7054.59,2126.81 h 156.99 v -929.99 h -170.29 l -526.85,678.53 v -678.53 h -157 v 929.99 h 157 l 540.15,-694.5 v 694.5" /><path
         id="path40"
         style="fill:#5ecbf5;fill-opacity:1;fill-rule:nonzero;stroke:none"
         d="m 8132.9,1907.29 c -63.42,65.62 -141.24,98.44 -233.47,98.44 -92.27,0 -170.1,-32.82 -233.5,-98.44 -63.43,-65.67 -95.13,-145.26 -95.13,-238.83 0,-93.58 31.7,-173.17 95.13,-238.8 63.4,-65.64 141.23,-98.45 233.5,-98.45 92.23,0 170.05,32.81 233.47,98.45 63.42,65.63 95.14,145.22 95.14,238.8 0,93.57 -31.72,173.16 -95.14,238.83 z m 115.09,-582.07 c -94.01,-91.81 -210.2,-137.71 -348.56,-137.71 -138.38,0 -254.58,45.9 -348.58,137.71 -94.03,91.79 -141.02,206.21 -141.02,343.24 0,137.04 46.99,251.45 141.02,343.27 94,91.79 210.2,137.68 348.58,137.68 138.36,0 254.55,-45.89 348.56,-137.68 94,-91.82 141.04,-206.23 141.04,-343.27 0,-137.03 -47.04,-251.45 -141.04,-343.24" /><path
         id="path42"
         style="fill:#5ecbf5;fill-opacity:1;fill-rule:nonzero;stroke:none"
         d="m 8913.21,1983.11 v -786.29 h -156.99 v 786.29 h -282.05 v 143.7 h 721.1 v -143.7 h -282.06" /><path
         id="path44"
         style="fill:#5ecbf5;fill-opacity:1;fill-rule:nonzero;stroke:none"
         d="M 10018.9,2126.74 H 9365.52 V 1979.2 h 653.38 z m -496.31,-782.25 v 248.87 h 445.72 v 139.67 h -602.79 v -536.28 h 669.28 v 147.74 h -512.21" /><path
         id="path46"
         style="fill:#5ecbf5;fill-opacity:1;fill-rule:nonzero;stroke:none"
         d="m 10517,2004.4 c -45.7,0 -83.1,-9.3 -112.4,-27.94 -29.3,-18.62 -43.9,-46.79 -43.9,-84.49 0,-37.7 14.6,-66.51 43.9,-86.47 29.3,-19.95 91.6,-41.46 186.9,-64.53 95.4,-23.07 167.2,-55.43 215.6,-97.11 48.3,-41.71 72.5,-103.11 72.5,-184.28 0,-81.14 -30.6,-147.01 -91.8,-197.56 -61.2,-50.57 -141.5,-75.85 -240.8,-75.85 -145.5,0 -274.6,50.11 -387.2,150.37 l 98.5,118.39 c 94,-81.61 191.5,-122.41 292.6,-122.41 50.6,0 90.7,10.87 120.5,32.61 29.7,21.73 44.5,50.55 44.5,86.48 0,35.92 -13.9,63.85 -41.9,83.82 -27.9,19.95 -76,38.13 -144.3,54.53 -68.3,16.42 -120.2,31.48 -155.7,45.26 -35.5,13.74 -67,31.69 -94.5,53.86 -55,41.69 -82.4,105.56 -82.4,191.6 0,86.02 31.2,152.33 93.8,198.9 62.5,46.56 139.9,69.83 232.1,69.83 59.4,0 118.4,-9.75 177,-29.26 58.5,-19.53 109.1,-47.03 151.6,-82.48 l -83.8,-118.42 c -27.5,24.83 -64.7,45.24 -111.7,61.21 -47.1,15.97 -93.4,23.94 -139.1,23.94" /><path
         id="path48"
         style="fill:#5ecbf5;fill-opacity:1;fill-rule:nonzero;stroke:none"
         d="m 3474.34,2046.57 h 157.07 v -453.21 h -157.07 v 453.21" /><path
         id="path50"
         style="fill:#5ecbf5;fill-opacity:1;fill-rule:nonzero;stroke:none"
         d="m 9365.52,2046.57 h 157.07 v -453.21 h -157.07 v 453.21" /></g></g></svg>